<svg width="160" height="150" viewBox="0 0 160 150" fill="none" xmlns="http://www.w3.org/2000/svg">
<path d="M116.349 47.8901C116.349 60.4401 106.369 70.81 93.9551 71.54C93.4681 71.54 92.9811 71.54 92.4941 71.54C88.3571 71.54 84.2191 70.3301 80.8111 68.4001C73.5091 64.3001 68.6421 56.5701 68.6421 47.6501C68.6421 41.6101 70.8321 36.06 74.7261 31.96C79.1081 27.13 85.4361 24 92.4941 24C101.739 24 109.779 29.31 113.669 37.03C115.369 40.41 116.349 44.0301 116.349 47.8901Z" fill="url(#paint0_linear_5273_2869)"/>
<path opacity="0.1" d="M116.139 47.8902C116.139 60.4402 106.159 70.8101 93.7461 71.5401C89.1211 70.8101 84.7401 69.6002 80.6021 68.6402C73.3001 64.5402 68.4321 56.8202 68.4321 47.8902C68.4321 41.8502 70.6231 36.3 74.5171 32.2C82.5491 31.96 91.7981 32.6802 101.289 34.3702C105.669 35.1002 109.809 36.0601 113.709 37.0301C115.169 40.4101 116.139 44.0302 116.139 47.8902Z" fill="black"/>
<path d="M145.239 63.8601C147.079 53.6201 124.429 41.0701 94.652 35.8101C64.875 30.5601 39.247 34.6001 37.41 44.8301C35.573 55.0701 58.2229 67.6202 87.9989 72.8802C117.779 78.1302 143.399 74.0901 145.239 63.8601Z" fill="url(#paint1_linear_5273_2869)"/>
<path d="M87.0613 41.6602C87.1963 39.9302 84.4813 38.31 80.9973 38.04C77.5123 37.78 74.5773 38.9599 74.4423 40.6899C74.3073 42.4099 77.0223 44.0301 80.5063 44.3001C83.9913 44.5701 86.9253 43.3902 87.0613 41.6602Z" fill="white"/>
<path d="M56.4351 46.0901C59.7851 45.1101 62.0981 42.96 61.6011 41.3C61.1031 39.64 57.9841 39.0901 54.6341 40.0801C51.2831 41.0701 48.9711 43.2101 49.4681 44.8701C49.9651 46.5301 53.0841 47.0801 56.4351 46.0901Z" fill="white"/>
<path d="M111.679 48.0101C111.979 46.3001 109.439 44.4301 105.999 43.8201C102.559 43.2101 99.519 44.1001 99.219 45.8101C98.909 47.5101 101.449 49.3901 104.889 50.0001C108.329 50.6001 111.369 49.7101 111.679 48.0101Z" fill="white"/>
<path d="M130.149 60.6201C130.959 59.0801 129.089 56.5499 125.979 54.9599C122.869 53.3699 119.709 53.3301 118.909 54.8701C118.099 56.4101 119.969 58.95 123.079 60.54C126.189 62.13 129.349 62.1601 130.149 60.6201Z" fill="white"/>
<path d="M88.2901 56.53L65.4111 56.29L32.8281 116.89L124.279 126.51L114.089 64.73L88.2901 56.53Z" fill="url(#paint2_linear_5273_2869)"/>
<path opacity="0.5" d="M136.239 126.59H19.1621C22.3261 123.76 26.9501 120.92 32.3051 118.8C35.2261 117.73 38.6331 116.31 42.0411 115.61C52.2631 112.77 64.6771 111 77.8201 111C93.6411 111 108.249 113.48 119.439 117.38C123.339 118.8 126.739 120.21 129.659 121.99C132.339 123.4 134.529 124.82 136.239 126.59Z" fill="url(#paint3_linear_5273_2869)"/>
<path opacity="0.3" d="M43.6622 117.32C43.8152 118.76 41.3062 120.48 38.4022 120.79C35.4982 121.1 32.9502 120.16 32.5542 118.75C35.3822 117.72 38.6682 116.4 42.0052 115.56C43.0242 115.93 43.5852 116.6 43.6622 117.32Z" fill="url(#paint4_linear_5273_2869)"/>
<path opacity="0.3" d="M64.1899 116.31C68.0879 116.31 71.2479 115.55 71.2479 114.62C71.2479 113.68 68.0879 112.93 64.1899 112.93C60.2909 112.93 57.1309 113.68 57.1309 114.62C57.1309 115.55 60.2909 116.31 64.1899 116.31Z" fill="url(#paint5_linear_5273_2869)"/>
<path opacity="0.3" d="M102.239 116.17C102.319 114.97 99.2289 113.79 95.3389 113.54C91.4489 113.28 88.2309 114.05 88.1509 115.24C88.0709 116.44 91.1589 117.62 95.0489 117.87C98.9389 118.13 102.159 117.36 102.239 116.17Z" fill="url(#paint6_linear_5273_2869)"/>
<path opacity="0.3" d="M129.039 121.61C128.069 121.49 126.909 121.53 125.479 121.12C121.639 120.44 118.639 118.88 118.779 117.68C118.799 117.44 118.799 117.44 119.069 117.23C122.829 118.63 126.249 119.99 129.039 121.61Z" fill="url(#paint7_linear_5273_2869)"/>
<path d="M113.949 65.3602C114.769 60.7602 104.499 55.1101 90.996 52.7301C77.497 50.3501 65.886 52.1401 65.062 56.7301C64.237 61.3201 74.512 66.9802 88.011 69.3602C101.509 71.7402 113.119 69.9502 113.949 65.3602Z" fill="url(#paint8_linear_5273_2869)"/>
<path d="M26.542 87.6001C26.542 87.6001 18.134 89.7299 20.682 91.4399C23.229 93.0599 29.259 95.88 34.949 94C40.639 92.12 34.949 89.48 35.034 89.48C35.119 89.48 26.542 87.6001 26.542 87.6001Z" fill="#CED7E2"/>
<path d="M16.2651 86.9102C19.3231 87.8502 28.7491 86.3201 34.7791 82.3901C39.5351 88.2801 41.3181 89.82 43.0171 89.99C40.3841 92.63 31.6371 96.9001 26.7111 91.3501C20.9361 95.0301 16.2651 86.9102 16.2651 86.9102Z" fill="#E9EEF8"/>
<path d="M117.249 94.6001C120.479 94.7701 129.229 90.84 133.979 85.55C140.099 90.07 142.129 91.1001 143.919 90.8401C141.959 94.0901 136.019 101.17 127.609 101.69C121.499 98.0999 117.249 94.6001 117.249 94.6001Z" fill="#E9EEF8"/>
<path d="M89.2821 94.71C88.6431 91.54 82.6601 84.04 76.3491 80.76C79.2081 73.71 79.6931 71.4801 79.0011 69.8101C82.6301 70.9001 90.9741 74.8902 93.5651 82.9102C91.6151 89.7202 89.2821 94.71 89.2821 94.71Z" fill="white"/>
<defs>
<linearGradient id="paint0_linear_5273_2869" x1="92.4981" y1="25.65" x2="92.4981" y2="52.33" gradientUnits="userSpaceOnUse">
<stop stop-color="#B0BACC"/>
<stop offset="1" stop-color="#969EAE"/>
</linearGradient>
<linearGradient id="paint1_linear_5273_2869" x1="41.157" y1="45.4901" x2="101.649" y2="56.3501" gradientUnits="userSpaceOnUse">
<stop stop-color="#E3E7EE"/>
<stop offset="1" stop-color="#D1D6DF"/>
</linearGradient>
<linearGradient id="paint2_linear_5273_2869" x1="78.5601" y1="58.73" x2="78.5601" y2="98.14" gradientUnits="userSpaceOnUse">
<stop stop-color="#BDC4D1" stop-opacity="0.53"/>
<stop offset="1" stop-color="#5D7CB8" stop-opacity="0"/>
</linearGradient>
<linearGradient id="paint3_linear_5273_2869" x1="77.6981" y1="111" x2="77.6981" y2="126.59" gradientUnits="userSpaceOnUse">
<stop stop-color="#B6BFD7"/>
<stop offset="1" stop-color="#838DA7" stop-opacity="0"/>
</linearGradient>
<linearGradient id="paint4_linear_5273_2869" x1="37.9092" y1="116.16" x2="38.1962" y2="118.85" gradientUnits="userSpaceOnUse">
<stop stop-color="#B0BACC"/>
<stop offset="1" stop-color="#969EAE"/>
</linearGradient>
<linearGradient id="paint5_linear_5273_2869" x1="64.1909" y1="113.05" x2="64.1909" y2="114.94" gradientUnits="userSpaceOnUse">
<stop stop-color="#B0BACC"/>
<stop offset="1" stop-color="#969EAE"/>
</linearGradient>
<linearGradient id="paint6_linear_5273_2869" x1="88.6399" y1="115.27" x2="96.5459" y2="115.8" gradientUnits="userSpaceOnUse">
<stop stop-color="#B0BACC"/>
<stop offset="1" stop-color="#969EAE"/>
</linearGradient>
<linearGradient id="paint7_linear_5273_2869" x1="124.139" y1="117.92" x2="123.929" y2="119.73" gradientUnits="userSpaceOnUse">
<stop stop-color="#B0BACC"/>
<stop offset="1" stop-color="#969EAE"/>
</linearGradient>
<linearGradient id="paint8_linear_5273_2869" x1="89.503" y1="67.4602" x2="93.1061" y2="55.0301" gradientUnits="userSpaceOnUse">
<stop stop-color="#B0BACC"/>
<stop offset="1" stop-color="#969EAE"/>
</linearGradient>
</defs>
</svg>
