<svg width="160" height="150" viewBox="0 0 160 150" fill="none" xmlns="http://www.w3.org/2000/svg">
<path d="M116.35 47.8901C116.35 60.4401 106.37 70.81 93.9556 71.54C93.4686 71.54 92.9816 71.54 92.4946 71.54C88.3576 71.54 84.2196 70.3301 80.8116 68.4001C73.5096 64.3001 68.6426 56.5701 68.6426 47.6501C68.6426 41.6101 70.8326 36.06 74.7266 31.96C79.1086 27.13 85.4366 24 92.4946 24C101.74 24 109.78 29.31 113.67 37.03C115.37 40.41 116.35 44.0301 116.35 47.8901Z" fill="#3A4150"/>
<path opacity="0.1" d="M116.14 47.8902C116.14 60.4402 106.16 70.8101 93.7466 71.5401C89.1216 70.8101 84.7406 69.6002 80.6026 68.6402C73.3006 64.5402 68.4326 56.8202 68.4326 47.8902C68.4326 41.8502 70.6236 36.3 74.5176 32.2C82.5496 31.96 91.7986 32.6802 101.29 34.3702C105.67 35.1002 109.81 36.0601 113.71 37.0301C115.17 40.4101 116.14 44.0302 116.14 47.8902Z" fill="black"/>
<path d="M145.24 63.8601C147.08 53.6201 124.43 41.0701 94.6529 35.8101C64.8759 30.5601 39.2479 34.6001 37.4109 44.8301C35.5739 55.0701 58.2239 67.6202 87.9999 72.8802C117.78 78.1302 143.4 74.0901 145.24 63.8601Z" fill="#484F62"/>
<path d="M87.0613 41.6602C87.1963 39.9302 84.4813 38.31 80.9973 38.04C77.5123 37.78 74.5773 38.9599 74.4423 40.6899C74.3073 42.4099 77.0223 44.0301 80.5063 44.3001C83.9913 44.5701 86.9253 43.3902 87.0613 41.6602Z" fill="#7E8597"/>
<path d="M56.4356 46.0901C59.7856 45.1101 62.0986 42.96 61.6016 41.3C61.1036 39.64 57.9846 39.0901 54.6346 40.0801C51.2836 41.0701 48.9716 43.2101 49.4686 44.8701C49.9656 46.5301 53.0846 47.0801 56.4356 46.0901Z" fill="#7E8597"/>
<path d="M111.679 48.0101C111.979 46.3001 109.439 44.4301 105.999 43.8201C102.559 43.2101 99.519 44.1001 99.219 45.8101C98.909 47.5101 101.449 49.3901 104.889 50.0001C108.329 50.6001 111.369 49.7101 111.679 48.0101Z" fill="#7E8597"/>
<path d="M130.15 60.6201C130.96 59.0801 129.09 56.5499 125.98 54.9599C122.87 53.3699 119.71 53.3301 118.91 54.8701C118.1 56.4101 119.97 58.95 123.08 60.54C126.19 62.13 129.35 62.1601 130.15 60.6201Z" fill="#7E8597"/>
<path d="M88.2901 56.53L65.4111 56.29L32.8281 116.89L124.279 126.51L114.089 64.73L88.2901 56.53Z" fill="url(#paint0_linear_5273_2800)"/>
<path opacity="0.5" d="M136.239 126.59H19.1621C22.3261 123.76 26.9501 120.92 32.3051 118.8C35.2261 117.73 38.6331 116.31 42.0411 115.61C52.2631 112.77 64.6771 111 77.8201 111C93.6411 111 108.249 113.48 119.439 117.38C123.339 118.8 126.739 120.21 129.659 121.99C132.339 123.4 134.529 124.82 136.239 126.59Z" fill="url(#paint1_linear_5273_2800)"/>
<path opacity="0.3" fill-rule="evenodd" clip-rule="evenodd" d="M71.2487 114.62C71.2487 115.55 68.0887 116.31 64.1907 116.31C60.2917 116.31 57.1317 115.55 57.1317 114.62C57.1317 113.68 60.2917 112.93 64.1907 112.93C68.0887 112.93 71.2487 113.68 71.2487 114.62ZM38.4026 120.79C41.3066 120.48 43.8157 118.76 43.6627 117.32C43.5857 116.6 43.0247 115.93 42.0057 115.56C39.3131 116.238 36.6536 117.228 34.2413 118.126L34.2411 118.126C33.6639 118.341 33.1007 118.551 32.5547 118.75C32.9507 120.16 35.4986 121.1 38.4026 120.79ZM102.24 116.17C102.32 114.97 99.2297 113.79 95.3397 113.54C91.4497 113.28 88.2317 114.05 88.1517 115.24C88.0717 116.44 91.1597 117.62 95.0497 117.87C98.9397 118.13 102.16 117.36 102.24 116.17ZM128.154 121.532C128.466 121.554 128.761 121.576 129.04 121.61C126.25 119.99 122.83 118.63 119.07 117.23C118.914 117.351 118.848 117.402 118.817 117.469C118.793 117.519 118.788 117.578 118.78 117.68C118.64 118.88 121.64 120.44 125.48 121.12C126.499 121.412 127.38 121.476 128.154 121.532Z" fill="#2C323B"/>
<path d="M113.949 65.3602C114.769 60.7602 104.499 55.1101 90.996 52.7301C77.497 50.3501 65.886 52.1401 65.062 56.7301C64.237 61.3201 74.512 66.9802 88.011 69.3602C101.509 71.7402 113.119 69.9502 113.949 65.3602Z" fill="#3A4150"/>
<path d="M26.542 87.6001C26.542 87.6001 18.134 89.7299 20.682 91.4399C23.229 93.0599 29.259 95.88 34.949 94C40.639 92.12 34.949 89.48 35.034 89.48C35.119 89.48 26.542 87.6001 26.542 87.6001Z" fill="#CED7E2"/>
<path d="M16.2656 86.9102C19.3236 87.8502 28.7496 86.3201 34.7796 82.3901C39.5356 88.2801 41.3186 89.82 43.0176 89.99C40.3846 92.63 31.6376 96.9001 26.7116 91.3501C20.9366 95.0301 16.2656 86.9102 16.2656 86.9102Z" fill="#7E8597"/>
<path d="M117.25 94.6001C120.48 94.7701 129.23 90.84 133.98 85.55C140.1 90.07 142.13 91.1001 143.92 90.8401C141.96 94.0901 136.02 101.17 127.61 101.69C121.5 98.0999 117.25 94.6001 117.25 94.6001Z" fill="#7E8597"/>
<path d="M89.2826 94.71C88.6436 91.54 82.6606 84.04 76.3496 80.76C79.2086 73.71 79.6936 71.4801 79.0016 69.8101C82.6306 70.9001 90.9746 74.8902 93.5656 82.9102C91.6156 89.7202 89.2826 94.71 89.2826 94.71Z" fill="#C4C9D8"/>
<defs>
<linearGradient id="paint0_linear_5273_2800" x1="78.5601" y1="58.73" x2="78.5601" y2="98.14" gradientUnits="userSpaceOnUse">
<stop stop-color="#1B1C1E" stop-opacity="0.53"/>
<stop offset="1" stop-color="#3A4150" stop-opacity="0"/>
</linearGradient>
<linearGradient id="paint1_linear_5273_2800" x1="77.6981" y1="111" x2="77.6981" y2="126.59" gradientUnits="userSpaceOnUse">
<stop stop-color="#C4C9D8"/>
<stop offset="1" stop-color="#C4C9D8" stop-opacity="0"/>
</linearGradient>
</defs>
</svg>
