<svg width="108" height="100" viewBox="0 0 108 100" fill="none" xmlns="http://www.w3.org/2000/svg">
<g clip-path="url(#clip0_11375_52858)">
<path d="M55.1828 87.9003C73.8495 87.9003 88.9828 72.767 88.9828 54.0336C88.9828 35.3003 73.7828 20.167 55.1828 20.167C36.5162 20.167 21.3828 35.3003 21.3828 54.0336C21.3828 72.767 36.5162 87.9003 55.1828 87.9003Z" fill="#2E333D"/>
<path d="M89.0497 35.5668C90.5597 35.5668 91.7831 34.3428 91.7831 32.8335C91.7831 31.3235 90.5597 30.1001 89.0497 30.1001C87.5404 30.1001 86.3164 31.3235 86.3164 32.8335C86.3164 34.3428 87.5404 35.5668 89.0497 35.5668Z" fill="#303640"/>
<path d="M90.7827 21.1669C91.814 21.1669 92.6494 20.3309 92.6494 19.3003C92.6494 18.2689 91.814 17.4336 90.7827 17.4336C89.752 17.4336 88.916 18.2689 88.916 19.3003C88.916 20.3309 89.752 21.1669 90.7827 21.1669Z" fill="#EAEEF9"/>
<path d="M23.1831 31.767C24.2144 31.767 25.0497 30.931 25.0497 29.9003C25.0497 28.869 24.2144 28.0337 23.1831 28.0337C22.1524 28.0337 21.3164 28.869 21.3164 29.9003C21.3164 30.931 22.1524 31.767 23.1831 31.767Z" fill="#303640"/>
<path d="M11.783 67.7668C13.6977 67.7668 15.2497 66.2148 15.2497 64.3002C15.2497 62.3855 13.6977 60.8335 11.783 60.8335C9.86904 60.8335 8.31641 62.3855 8.31641 64.3002C8.31641 66.2148 9.86904 67.7668 11.783 67.7668Z" fill="#303640"/>
<g filter="url(#filter0_d_11375_52858)">
<path d="M30.5194 35.6562C31.484 33.4932 33.6308 32.1001 35.9991 32.1001H64.6344C67.0027 32.1001 69.1494 33.4932 70.1141 35.6562L71.1298 37.9335C71.4728 38.7026 71.6501 39.5353 71.6501 40.3774V64.7668C71.6501 68.0805 68.9638 70.7668 65.6501 70.7668H34.9834C31.6697 70.7668 28.9834 68.0805 28.9834 64.7668V40.3774C28.9834 39.5353 29.1607 38.7026 29.5037 37.9335L30.5194 35.6562Z" fill="#495063"/>
<rect x="28.9834" y="35.4336" width="42.6667" height="40" rx="6" fill="#7E8597"/>
<rect x="46.2148" y="38.8613" width="8.97959" height="33.1122" rx="2.52551" fill="#495063"/>
<rect x="58.5615" y="38.8613" width="8.97959" height="33.1122" rx="2.52551" fill="#495063"/>
<path d="M50.6914 42.9941C49.6914 42.9941 48.8164 43.8691 48.8164 44.8691V51.1191C48.8164 52.1191 49.6914 52.9941 50.6914 52.9941C51.6914 52.9941 52.5664 52.1191 52.5664 51.1191V44.8691C52.5664 43.8691 51.6914 42.9941 50.6914 42.9941ZM63.1914 42.9941C62.1914 42.9941 61.3164 43.8691 61.3164 44.8691V51.1191C61.3164 52.1191 62.1914 52.9941 63.1914 52.9941C64.1914 52.9941 65.0664 52.1191 65.0664 51.1191V44.8691C65.0664 43.8691 64.1914 42.9941 63.1914 42.9941Z" fill="#7E8597"/>
<path d="M34.9904 41.1065C34.9904 42.0364 34.2366 42.7902 33.3067 42.7902C32.3769 42.7902 31.623 42.0364 31.623 41.1065C31.623 40.1767 32.3769 39.4229 33.3067 39.4229C34.2366 39.4229 34.9904 40.1767 34.9904 41.1065Z" fill="#495063"/>
<path d="M34.9904 46.7188C34.9904 47.6486 34.2366 48.4024 33.3067 48.4024C32.3769 48.4024 31.623 47.6486 31.623 46.7188C31.623 45.7889 32.3769 45.0351 33.3067 45.0351C34.2366 45.0351 34.9904 45.7889 34.9904 46.7188Z" fill="#495063"/>
</g>
<path d="M82.5018 20.0943L95.1139 13.1968C95.9 12.7669 96.8279 13.4588 96.6401 14.3349L94.5132 24.2584C94.3834 24.8642 93.7588 25.2254 93.169 25.0358L88.4257 23.5112L92.5396 17.1942L86.7782 23.0809L82.7396 22.026C81.8226 21.7865 81.6703 20.5491 82.5018 20.0943Z" fill="#2E333D"/>
<path d="M56.9834 36.0278C58.5992 36.0278 64.2546 37.723 68.2942 36.8754C72.3338 36.0279 77.112 31.6107 76.3734 27.1742C74.7575 17.4692 61.8357 20.046 63.4467 27.1742C65.1878 34.878 72.4269 35.259 77.9892 32.8273C82.5782 30.1324 86.6501 24.8971 86.6501 24.8971" stroke="#989FB0" stroke-width="2" stroke-miterlimit="10" stroke-dasharray="4 4"/>
<path d="M88.7885 74.3677L83.6172 69.201L84.8032 68.021L89.9699 73.1877L88.7885 74.3677Z" fill="#858B9B"/>
<path d="M90.3036 76.4411L85.2023 71.3411C85.0836 71.2211 85.0836 71.0278 85.2023 70.9078L86.5063 69.6011C86.6249 69.4878 86.8169 69.4878 86.9396 69.6011L92.0409 74.7078C92.1596 74.8211 92.1596 75.0144 92.0409 75.1411L90.7369 76.4411C90.6143 76.5611 90.4223 76.5611 90.3036 76.4411Z" fill="url(#paint0_linear_11375_52858)"/>
<path d="M77.7635 52.5542C72.3508 52.5542 67.9648 56.9409 67.9648 62.3542C67.9648 67.7609 72.3509 72.1475 77.7595 72.1475C83.1715 72.1475 87.5575 67.7675 87.5575 62.3542C87.5575 56.9409 83.1715 52.5542 77.7635 52.5542ZM77.7635 70.3342C73.4182 70.3342 69.8982 66.7609 69.8982 62.3475C69.8982 57.9342 73.4182 54.3675 77.7635 54.3675C82.1088 54.3675 85.6282 57.9409 85.6282 62.3542C85.6282 66.7609 82.1048 70.3342 77.7635 70.3342Z" fill="url(#paint1_linear_11375_52858)"/>
</g>
<defs>
<filter id="filter0_d_11375_52858" x="6.2959" y="20.7563" width="88.042" height="88.7085" filterUnits="userSpaceOnUse" color-interpolation-filters="sRGB">
<feFlood flood-opacity="0" result="BackgroundImageFix"/>
<feColorMatrix in="SourceAlpha" type="matrix" values="0 0 0 0 0 0 0 0 0 0 0 0 0 0 0 0 0 0 127 0" result="hardAlpha"/>
<feOffset dy="11.3438"/>
<feGaussianBlur stdDeviation="11.3438"/>
<feColorMatrix type="matrix" values="0 0 0 0 0.397708 0 0 0 0 0.47749 0 0 0 0 0.575 0 0 0 0.27 0"/>
<feBlend mode="normal" in2="BackgroundImageFix" result="effect1_dropShadow_11375_52858"/>
<feBlend mode="normal" in="SourceGraphic" in2="effect1_dropShadow_11375_52858" result="shape"/>
</filter>
<linearGradient id="paint0_linear_11375_52858" x1="85.1103" y1="73.0211" x2="92.1316" y2="73.0211" gradientUnits="userSpaceOnUse">
<stop stop-color="#B0BACC"/>
<stop offset="1" stop-color="#969EAE"/>
</linearGradient>
<linearGradient id="paint1_linear_11375_52858" x1="67.9562" y1="62.3542" x2="87.5615" y2="62.3542" gradientUnits="userSpaceOnUse">
<stop stop-color="#B0BACC"/>
<stop offset="1" stop-color="#969EAE"/>
</linearGradient>
<clipPath id="clip0_11375_52858">
<rect width="106.667" height="100" fill="white" transform="translate(0.666992)"/>
</clipPath>
</defs>
</svg>
