<svg width="108" height="100" viewBox="0 0 108 100" fill="none" xmlns="http://www.w3.org/2000/svg">
<path d="M52.1984 87.1333C70.8651 87.1333 85.9985 72 85.9985 53.2667C85.9985 34.5334 70.7985 19.4 52.1984 19.4C33.5318 19.4 18.3984 34.5334 18.3984 53.2667C18.3984 72 33.5318 87.1333 52.1984 87.1333Z" fill="#EAEEF9"/>
<path d="M86.0634 34.8C87.5734 34.8 88.7968 33.5761 88.7968 32.0667C88.7968 30.5567 87.5734 29.3334 86.0634 29.3334C84.5541 29.3334 83.3301 30.5567 83.3301 32.0667C83.3301 33.5761 84.5541 34.8 86.0634 34.8Z" fill="#EAEEF9"/>
<path d="M87.7983 20.4001C88.8296 20.4001 89.665 19.5641 89.665 18.5334C89.665 17.5021 88.8296 16.6667 87.7983 16.6667C86.7676 16.6667 85.9316 17.5021 85.9316 18.5334C85.9316 19.5641 86.7676 20.4001 87.7983 20.4001Z" fill="#EAEEF9"/>
<path d="M20.2006 31.0001C21.232 31.0001 22.0673 30.164 22.0673 29.1334C22.0673 28.102 21.232 27.2667 20.2006 27.2667C19.17 27.2667 18.334 28.102 18.334 29.1334C18.334 30.164 19.17 31.0001 20.2006 31.0001Z" fill="#EAEEF9"/>
<path d="M8.79867 67.0001C10.7133 67.0001 12.2653 65.4481 12.2653 63.5334C12.2653 61.6188 10.7133 60.0668 8.79867 60.0668C6.88467 60.0668 5.33203 61.6188 5.33203 63.5334C5.33203 65.4481 6.88467 67.0001 8.79867 67.0001Z" fill="#EAEEF9"/>
<g filter="url(#filter0_d_4188_262614)">
<path d="M28.0588 33.704C28.7019 32.262 30.133 31.3333 31.7119 31.3333H62.943C64.5219 31.3333 65.9531 32.262 66.5962 33.704L68.314 37.5555C68.5426 38.0683 68.6608 38.6234 68.6608 39.1848V65.9999C68.6608 68.2091 66.8699 69.9999 64.6608 69.9999H29.9941C27.785 69.9999 25.9941 68.2091 25.9941 65.9999V39.1848C25.9941 38.6234 26.1123 38.0683 26.341 37.5555L28.0588 33.704Z" fill="#CBD3E1"/>
<rect x="25.9941" y="34.6666" width="42.6667" height="40" rx="4" fill="url(#paint0_linear_4188_262614)"/>
<rect x="43.5" y="38.0945" width="9.12213" height="33.1122" rx="1.68367" fill="#D9DEEA"/>
<rect x="56.041" y="38.0945" width="9.12213" height="33.1122" rx="1.68367" fill="#D9DEEA"/>
<path d="M48.0473 42.2272C47.0315 42.2272 46.1426 43.1022 46.1426 44.1022V50.3522C46.1426 51.3522 47.0315 52.2272 48.0473 52.2272C49.0632 52.2272 49.9521 51.3522 49.9521 50.3522V44.1022C49.9521 43.1022 49.0632 42.2272 48.0473 42.2272ZM60.7458 42.2272C59.7299 42.2272 58.841 43.1022 58.841 44.1022V50.3522C58.841 51.3522 59.7299 52.2272 60.7458 52.2272C61.7616 52.2272 62.6505 51.3522 62.6505 50.3522V44.1022C62.6505 43.1022 61.7616 42.2272 60.7458 42.2272Z" fill="url(#paint1_linear_4188_262614)"/>
<ellipse cx="30.3881" cy="40.3396" rx="1.7104" ry="1.68367" fill="#D9DEEA"/>
<ellipse cx="30.3881" cy="45.9517" rx="1.7104" ry="1.68367" fill="#D9DEEA"/>
</g>
<path d="M78.7443 19.0826L92.7959 11.3978C93.32 11.1112 93.9386 11.5724 93.8134 12.1565L91.446 23.2021C91.3595 23.606 90.9431 23.8468 90.5499 23.7204L85.4394 22.0778L89.5533 15.7607L83.7919 21.6474L78.9028 20.3704C78.2915 20.2107 78.1899 19.3858 78.7443 19.0826Z" fill="#D5DDEA"/>
<path d="M53.9961 34.5947C55.6119 34.5947 61.2673 36.2899 65.3069 35.4423C69.3465 34.5947 74.1247 30.1776 73.3861 25.7411C71.7702 16.0361 58.8484 18.6129 60.4594 25.7411C62.2005 33.4449 69.4396 33.8259 75.0019 31.3942C79.5909 28.6993 83.6628 23.464 83.6628 23.464" stroke="#D1D6DF" stroke-width="1.1634" stroke-linecap="round" stroke-dasharray="1.16 3.49"/>
<path d="M85.8022 72.934L80.6309 67.7673L81.8169 66.5873L86.9835 71.7539L85.8022 72.934Z" fill="#858B9B"/>
<path d="M87.3192 75.0074L82.2179 69.9074C82.0992 69.7874 82.0992 69.594 82.2179 69.474L83.5219 68.1674C83.6406 68.0541 83.8326 68.0541 83.9552 68.1674L89.0566 73.2741C89.1752 73.3874 89.1752 73.5807 89.0566 73.7074L87.7526 75.0074C87.6299 75.1274 87.4379 75.1274 87.3192 75.0074Z" fill="url(#paint2_linear_4188_262614)"/>
<path d="M74.7791 51.1206C69.3665 51.1206 64.9805 55.5073 64.9805 60.9206C64.9805 66.3273 69.3665 70.7139 74.7751 70.7139C80.1871 70.7139 84.5731 66.3339 84.5731 60.9206C84.5731 55.5073 80.1871 51.1206 74.7791 51.1206ZM74.7791 68.9006C70.4338 68.9006 66.9138 65.3273 66.9138 60.9139C66.9138 56.5006 70.4338 52.9339 74.7791 52.9339C79.1245 52.9339 82.6438 56.5073 82.6438 60.9206C82.6438 65.3273 79.1205 68.9006 74.7791 68.9006Z" fill="url(#paint3_linear_4188_262614)"/>
<defs>
<filter id="filter0_d_4188_262614" x="10.8691" y="23.7708" width="72.916" height="73.5834" filterUnits="userSpaceOnUse" color-interpolation-filters="sRGB">
<feFlood flood-opacity="0" result="BackgroundImageFix"/>
<feColorMatrix in="SourceAlpha" type="matrix" values="0 0 0 0 0 0 0 0 0 0 0 0 0 0 0 0 0 0 127 0" result="hardAlpha"/>
<feOffset dy="7.5625"/>
<feGaussianBlur stdDeviation="7.5625"/>
<feColorMatrix type="matrix" values="0 0 0 0 0.397708 0 0 0 0 0.47749 0 0 0 0 0.575 0 0 0 0.27 0"/>
<feBlend mode="normal" in2="BackgroundImageFix" result="effect1_dropShadow_4188_262614"/>
<feBlend mode="normal" in="SourceGraphic" in2="effect1_dropShadow_4188_262614" result="shape"/>
</filter>
<linearGradient id="paint0_linear_4188_262614" x1="47.3137" y1="33.7398" x2="47.3137" y2="75.1003" gradientUnits="userSpaceOnUse">
<stop stop-color="#FDFEFF"/>
<stop offset="0.9964" stop-color="#ECF0F5"/>
</linearGradient>
<linearGradient id="paint1_linear_4188_262614" x1="60.7363" y1="41.9955" x2="60.7363" y2="52.3356" gradientUnits="userSpaceOnUse">
<stop stop-color="#FDFEFF"/>
<stop offset="0.9964" stop-color="#ECF0F5"/>
</linearGradient>
<linearGradient id="paint2_linear_4188_262614" x1="82.1259" y1="71.5874" x2="89.1472" y2="71.5874" gradientUnits="userSpaceOnUse">
<stop stop-color="#B0BACC"/>
<stop offset="1" stop-color="#969EAE"/>
</linearGradient>
<linearGradient id="paint3_linear_4188_262614" x1="64.9718" y1="60.9206" x2="84.5771" y2="60.9206" gradientUnits="userSpaceOnUse">
<stop stop-color="#B0BACC"/>
<stop offset="1" stop-color="#969EAE"/>
</linearGradient>
</defs>
</svg>
