<svg width="160" height="150" viewBox="0 0 160 150" fill="none" xmlns="http://www.w3.org/2000/svg">
<path d="M75.8612 124.561C102.294 124.561 123.721 103.134 123.721 76.701C123.721 50.2686 102.294 28.8408 75.8612 28.8408C49.4287 28.8408 28.001 50.2686 28.001 76.701C28.001 103.134 49.4287 124.561 75.8612 124.561Z" fill="#EAEEF9"/>
<path d="M129.671 56.949C131.935 56.949 133.771 55.114 133.771 52.849C133.771 50.585 131.935 48.749 129.671 48.749C127.406 48.749 125.571 50.585 125.571 52.849C125.571 55.114 127.406 56.949 129.671 56.949Z" fill="#EAEEF9"/>
<path d="M135.671 40.9489C137.217 40.9489 138.471 39.6959 138.471 38.1489C138.471 36.6029 137.217 35.3489 135.671 35.3489C134.124 35.3489 132.871 36.6029 132.871 38.1489C132.871 39.6959 134.124 40.9489 135.671 40.9489Z" fill="#EAEEF9"/>
<path d="M33.721 36.4C36.593 36.4 38.921 34.071 38.921 31.2C38.921 28.328 36.593 26 33.721 26C30.849 26 28.521 28.328 28.521 31.2C28.521 34.071 30.849 36.4 33.721 36.4Z" fill="#EAEEF9"/>
<path d="M94.369 50.6249H68.874V40.949H102.294C102.355 40.949 102.417 40.949 102.478 40.949C107.7 41.073 111.939 45.3869 111.939 50.6249H100.881" fill="#CCD4E2"/>
<g filter="url(#filter0_d_5273_2881)">
<path d="M103.215 40.949C101.249 41.073 99.4061 41.874 98.1161 43.23C97.9931 43.353 97.8701 43.4759 97.7481 43.6609C96.5801 45.0169 95.7201 46.804 95.7201 48.714V106.271C95.7201 111.631 91.4201 115.951 86.0751 115.951H39.1401V48.283C39.2631 46.311 40.0001 44.524 41.2901 43.23C42.7031 41.812 44.6081 40.949 46.7581 40.949H94.0001H102.969C103.031 40.949 103.092 40.949 103.215 40.949Z" fill="url(#paint0_linear_5273_2881)"/>
</g>
<path d="M86.3821 54.1381H72.4371C71.9461 54.1381 71.5161 53.7061 71.5161 53.2131C71.5161 52.7201 71.9461 52.2891 72.4371 52.2891H86.3821C86.8741 52.2891 87.3041 52.7201 87.3041 53.2131C87.3041 53.7061 86.9351 54.1381 86.3821 54.1381Z" fill="#B3BFD3"/>
<path d="M65.8638 54.1381H47.6788C47.1878 54.1381 46.7578 53.7061 46.7578 53.2131C46.7578 52.7201 47.1878 52.2891 47.6788 52.2891H65.9248C66.4158 52.2891 66.8458 52.7201 66.8458 53.2131C66.8458 53.7061 66.4158 54.1381 65.8638 54.1381Z" fill="#B3BFD3"/>
<path d="M77.5362 63.2589H59.4132C58.9222 63.2589 58.4922 62.8269 58.4922 62.3339C58.4922 61.8409 58.9222 61.4099 59.4132 61.4099H77.5362C78.0272 61.4099 78.4582 61.8409 78.4582 62.3339C78.5192 62.8269 78.0892 63.2589 77.5362 63.2589Z" fill="#B3BFD3"/>
<path d="M53.5768 63.2589H47.6788C47.1878 63.2589 46.7578 62.8269 46.7578 62.3339C46.7578 61.8409 47.1878 61.4099 47.6788 61.4099H53.5768C54.0678 61.4099 54.4978 61.8409 54.4978 62.3339C54.4978 62.8269 54.0678 63.2589 53.5768 63.2589Z" fill="#D4DBEC"/>
<path d="M86.3818 72.381H75.2628C74.7718 72.381 74.3408 71.951 74.3408 71.451C74.3408 70.961 74.7718 70.531 75.2628 70.531H86.3818C86.8738 70.531 87.3038 70.961 87.3038 71.451C87.3038 71.951 86.9348 72.381 86.3818 72.381Z" fill="#D4DBEC"/>
<path d="M69.9178 72.381H47.6788C47.1878 72.381 46.7578 71.951 46.7578 71.451C46.7578 70.961 47.1878 70.531 47.6788 70.531H69.9178C70.4098 70.531 70.8398 70.961 70.8398 71.451C70.8398 71.951 70.4708 72.381 69.9178 72.381Z" fill="#B3BFD3"/>
<path d="M77.5362 81.5009H65.3112C64.8192 81.5009 64.3892 81.0709 64.3892 80.5709C64.3892 80.0809 64.8192 79.6509 65.3112 79.6509H77.5362C78.0282 79.6509 78.4582 80.0809 78.4582 80.5709C78.5192 81.0709 78.0892 81.5009 77.5362 81.5009Z" fill="#B3BFD3"/>
<path d="M59.9658 81.5009H47.6788C47.1878 81.5009 46.7578 81.0709 46.7578 80.5709C46.7578 80.0809 47.1878 79.6509 47.6788 79.6509H60.0268C60.5188 79.6509 60.9488 80.0809 60.9488 80.5709C60.9488 81.0709 60.5188 81.5009 59.9658 81.5009Z" fill="#D4DBEC"/>
<path d="M86.3819 90.621H77.8429C77.3519 90.621 76.9219 90.191 76.9219 89.701C76.9219 89.201 77.3519 88.771 77.8429 88.771H86.3819C86.8739 88.771 87.3039 89.201 87.3039 89.701C87.3039 90.191 86.9349 90.621 86.3819 90.621Z" fill="#B3BFD3"/>
<path d="M72.3141 90.621H58.0001C57.5091 90.621 57.0791 90.191 57.0791 89.701C57.0791 89.201 57.5091 88.771 58.0001 88.771H72.3141C72.8061 88.771 73.2361 89.201 73.2361 89.701C73.2361 90.191 72.8061 90.621 72.3141 90.621Z" fill="#D4DBEC"/>
<path d="M52.6548 90.621H47.6788C47.1878 90.621 46.7578 90.191 46.7578 89.701C46.7578 89.201 47.1878 88.771 47.6788 88.771H52.6548C53.1468 88.771 53.5768 89.201 53.5768 89.701C53.5768 90.191 53.1468 90.621 52.6548 90.621Z" fill="#B3BFD3"/>
<path d="M77.5357 99.7411H69.0577C68.5667 99.7411 68.1367 99.311 68.1367 98.821C68.1367 98.321 68.5667 97.8911 69.0577 97.8911H77.5357C78.0267 97.8911 78.4567 98.321 78.4567 98.821C78.5187 99.311 78.0887 99.7411 77.5357 99.7411Z" fill="#B3BFD3"/>
<path d="M63.4678 99.7411H47.6788C47.1878 99.7411 46.7578 99.311 46.7578 98.821C46.7578 98.321 47.1878 97.8911 47.6788 97.8911H63.4678C63.9588 97.8911 64.3888 98.321 64.3888 98.821C64.3888 99.311 63.9588 99.7411 63.4678 99.7411Z" fill="#D4DBEC"/>
<path d="M65.434 108.311H77.843C77.843 110.401 78.703 112.311 80.055 113.671C81.406 115.091 83.311 115.891 85.399 115.891H29.556C27.468 115.891 25.563 115.021 24.212 113.671C22.86 112.311 22 110.401 22 108.311H58.737C58.737 108.311 65.556 108.371 65.434 108.311Z" fill="#CCD4E2"/>
<path d="M118.708 102.401L110.951 94.6509L112.73 92.8809L120.48 100.631L118.708 102.401Z" fill="#858B9B"/>
<path d="M121.404 105.131L115.457 99.1808C114.96 98.6908 114.96 97.8809 115.457 97.3809C115.953 96.8809 116.763 96.8809 117.259 97.3809L123.207 103.331C123.704 103.831 123.704 104.631 123.207 105.131C122.711 105.631 121.901 105.631 121.404 105.131Z" fill="#858B9B"/>
<path d="M120.981 105.511L113.329 97.861C113.151 97.681 113.151 97.391 113.329 97.211L115.285 95.251C115.463 95.081 115.751 95.081 115.935 95.251L123.587 102.911C123.765 103.081 123.765 103.371 123.587 103.561L121.631 105.511C121.447 105.691 121.159 105.691 120.981 105.511Z" fill="url(#paint1_linear_5273_2881)"/>
<path d="M102.171 69.6809C94.0521 69.6809 87.4731 76.2609 87.4731 84.3809C87.4731 92.4909 94.0522 99.0709 102.165 99.0709C110.283 99.0709 116.862 92.5009 116.862 84.3809C116.862 76.2609 110.283 69.6809 102.171 69.6809ZM102.171 96.3509C95.6531 96.3509 90.3731 90.9909 90.3731 84.3709C90.3731 77.7509 95.6531 72.4009 102.171 72.4009C108.689 72.4009 113.968 77.7609 113.968 84.3809C113.968 90.9909 108.683 96.3509 102.171 96.3509Z" fill="url(#paint2_linear_5273_2881)"/>
<defs>
<filter id="filter0_d_5273_2881" x="17.1401" y="29.949" width="108.075" height="119.002" filterUnits="userSpaceOnUse" color-interpolation-filters="sRGB">
<feFlood flood-opacity="0" result="BackgroundImageFix"/>
<feColorMatrix in="SourceAlpha" type="matrix" values="0 0 0 0 0 0 0 0 0 0 0 0 0 0 0 0 0 0 127 0" result="hardAlpha"/>
<feOffset dy="11"/>
<feGaussianBlur stdDeviation="11"/>
<feColorMatrix type="matrix" values="0 0 0 0 0.397708 0 0 0 0 0.47749 0 0 0 0 0.575 0 0 0 0.27 0"/>
<feBlend mode="normal" in2="BackgroundImageFix" result="effect1_dropShadow_5273_2881"/>
<feBlend mode="normal" in="SourceGraphic" in2="effect1_dropShadow_5273_2881" result="shape"/>
</filter>
<linearGradient id="paint0_linear_5273_2881" x1="71.1571" y1="39.215" x2="71.1571" y2="116.761" gradientUnits="userSpaceOnUse">
<stop stop-color="#FDFEFF"/>
<stop offset="0.9964" stop-color="#ECF0F5"/>
</linearGradient>
<linearGradient id="paint1_linear_5273_2881" x1="113.191" y1="100.381" x2="123.723" y2="100.381" gradientUnits="userSpaceOnUse">
<stop stop-color="#B0BACC"/>
<stop offset="1" stop-color="#969EAE"/>
</linearGradient>
<linearGradient id="paint2_linear_5273_2881" x1="87.4601" y1="84.3809" x2="116.868" y2="84.3809" gradientUnits="userSpaceOnUse">
<stop stop-color="#B0BACC"/>
<stop offset="1" stop-color="#969EAE"/>
</linearGradient>
</defs>
</svg>
