<svg width="160" height="150" viewBox="0 0 160 150" fill="none" xmlns="http://www.w3.org/2000/svg">
<path d="M75.8612 124.561C102.294 124.561 123.721 103.134 123.721 76.701C123.721 50.2686 102.294 28.8408 75.8612 28.8408C49.4287 28.8408 28.001 50.2686 28.001 76.701C28.001 103.134 49.4287 124.561 75.8612 124.561Z" fill="#292D36"/>
<path d="M129.671 56.949C131.935 56.949 133.771 55.114 133.771 52.849C133.771 50.585 131.935 48.749 129.671 48.749C127.406 48.749 125.571 50.585 125.571 52.849C125.571 55.114 127.406 56.949 129.671 56.949Z" fill="#292D36"/>
<path d="M135.671 40.9489C137.217 40.9489 138.471 39.6959 138.471 38.1489C138.471 36.6029 137.217 35.3489 135.671 35.3489C134.124 35.3489 132.871 36.6029 132.871 38.1489C132.871 39.6959 134.124 40.9489 135.671 40.9489Z" fill="#292D36"/>
<path d="M33.7215 36.4C36.5935 36.4 38.9215 34.071 38.9215 31.2C38.9215 28.328 36.5935 26 33.7215 26C30.8495 26 28.5215 28.328 28.5215 31.2C28.5215 34.071 30.8495 36.4 33.7215 36.4Z" fill="#292D36"/>
<path d="M94.369 50.6249H68.874V40.949H102.294C102.355 40.949 102.417 40.949 102.478 40.949C107.7 41.073 111.939 45.3869 111.939 50.6249H100.881" fill="#393F4E"/>
<g filter="url(#filter0_d_5273_2812)">
<path d="M103.216 40.949C101.25 41.073 99.4066 41.874 98.1166 43.23C97.9936 43.353 97.8706 43.4759 97.7486 43.6609C96.5806 45.0169 95.7206 46.804 95.7206 48.714V106.271C95.7206 111.631 91.4206 115.951 86.0756 115.951H39.1406V48.283C39.2636 46.311 40.0006 44.524 41.2906 43.23C42.7036 41.812 44.6086 40.949 46.7586 40.949H94.0006H102.97C103.032 40.949 103.093 40.949 103.216 40.949Z" fill="url(#paint0_linear_5273_2812)"/>
</g>
<path fill-rule="evenodd" clip-rule="evenodd" d="M47.679 54.1381H65.8641C66.4161 54.1381 66.8461 53.7061 66.8461 53.2131C66.8461 52.7201 66.416 52.2891 65.925 52.2891H47.679C47.188 52.2891 46.7581 52.7201 46.7581 53.2131C46.7581 53.7061 47.188 54.1381 47.679 54.1381ZM72.4371 54.1381H86.3821C86.9351 54.1381 87.3041 53.7061 87.3041 53.2131C87.3041 52.7201 86.8741 52.2891 86.3821 52.2891H72.4371C71.9461 52.2891 71.5161 52.7201 71.5161 53.2131C71.5161 53.7061 71.9461 54.1381 72.4371 54.1381ZM77.5359 63.259H59.4129C58.9219 63.259 58.4919 62.827 58.4919 62.334C58.4919 61.841 58.9219 61.41 59.4129 61.41H77.5359C78.027 61.41 78.4579 61.841 78.4579 62.334C78.5189 62.827 78.089 63.259 77.5359 63.259ZM47.679 63.259H53.5771C54.0681 63.259 54.498 62.827 54.498 62.334C54.498 61.841 54.0681 61.41 53.5771 61.41H47.679C47.188 61.41 46.7581 61.841 46.7581 62.334C46.7581 62.827 47.188 63.259 47.679 63.259ZM86.382 72.3812H75.2631C74.7721 72.3812 74.3411 71.9512 74.3411 71.4512C74.3411 70.9612 74.7721 70.5311 75.2631 70.5311H86.382C86.874 70.5311 87.304 70.9612 87.304 71.4512C87.304 71.9512 86.9351 72.3812 86.382 72.3812ZM47.679 72.3812H69.9181C70.4711 72.3812 70.8401 71.9512 70.8401 71.4512C70.8401 70.9612 70.4101 70.5311 69.9181 70.5311H47.679C47.188 70.5311 46.7581 70.9612 46.7581 71.4512C46.7581 71.9512 47.188 72.3812 47.679 72.3812ZM77.5362 81.501H65.3112C64.8192 81.501 64.3892 81.071 64.3892 80.571C64.3892 80.081 64.8192 79.651 65.3112 79.651H77.5362C78.0282 79.651 78.4582 80.081 78.4582 80.571C78.5192 81.071 78.0892 81.501 77.5362 81.501ZM47.679 81.501H59.9661C60.5191 81.501 60.9491 81.071 60.9491 80.571C60.9491 80.081 60.5191 79.651 60.0271 79.651H47.679C47.188 79.651 46.7581 80.081 46.7581 80.571C46.7581 81.071 47.188 81.501 47.679 81.501ZM86.3821 90.6211H77.8431C77.3521 90.6211 76.9221 90.1911 76.9221 89.7011C76.9221 89.2011 77.3521 88.7711 77.8431 88.7711H86.3821C86.8741 88.7711 87.3041 89.2011 87.3041 89.7011C87.3041 90.1911 86.9351 90.6211 86.3821 90.6211ZM58.0001 90.6211H72.3141C72.8061 90.6211 73.2361 90.1911 73.2361 89.7011C73.2361 89.2011 72.8061 88.7711 72.3141 88.7711H58.0001C57.5091 88.7711 57.0791 89.2011 57.0791 89.7011C57.0791 90.1911 57.5091 90.6211 58.0001 90.6211ZM52.6551 90.6211H47.679C47.188 90.6211 46.7581 90.1911 46.7581 89.7011C46.7581 89.2011 47.188 88.7711 47.679 88.7711H52.6551C53.1471 88.7711 53.5771 89.2011 53.5771 89.7011C53.5771 90.1911 53.1471 90.6211 52.6551 90.6211ZM69.058 99.7411H77.536C78.089 99.7411 78.519 99.311 78.457 98.821C78.457 98.321 78.027 97.8911 77.536 97.8911H69.058C68.567 97.8911 68.137 98.321 68.137 98.821C68.137 99.311 68.567 99.7411 69.058 99.7411ZM63.468 99.7411H47.679C47.188 99.7411 46.7581 99.311 46.7581 98.821C46.7581 98.321 47.188 97.8911 47.679 97.8911H63.468C63.959 97.8911 64.3891 98.321 64.3891 98.821C64.3891 99.311 63.959 99.7411 63.468 99.7411ZM77.843 108.311H65.434C65.556 108.371 58.737 108.311 58.737 108.311H22C22 110.401 22.86 112.311 24.212 113.671C25.563 115.021 27.468 115.891 29.556 115.891H85.399C83.311 115.891 81.406 115.091 80.055 113.671C78.703 112.311 77.843 110.401 77.843 108.311Z" fill="#393F4E"/>
<path d="M118.708 102.401L110.951 94.6509L112.73 92.8809L120.48 100.631L118.708 102.401Z" fill="#858B9B"/>
<path d="M121.404 105.131L115.457 99.1808C114.96 98.6908 114.96 97.8809 115.457 97.3809C115.953 96.8809 116.763 96.8809 117.259 97.3809L123.207 103.331C123.704 103.831 123.704 104.631 123.207 105.131C122.711 105.631 121.901 105.631 121.404 105.131Z" fill="#858B9B"/>
<path d="M120.981 105.511L113.329 97.861C113.151 97.681 113.151 97.391 113.329 97.211L115.285 95.251C115.463 95.081 115.751 95.081 115.935 95.251L123.587 102.911C123.765 103.081 123.765 103.371 123.587 103.561L121.631 105.511C121.447 105.691 121.159 105.691 120.981 105.511Z" fill="#989FB0"/>
<path d="M102.171 69.6809C94.0517 69.6809 87.4727 76.2609 87.4727 84.3809C87.4727 92.4909 94.0517 99.0709 102.165 99.0709C110.283 99.0709 116.862 92.5009 116.862 84.3809C116.862 76.2609 110.283 69.6809 102.171 69.6809ZM102.171 96.3509C95.6527 96.3509 90.3727 90.9909 90.3727 84.3709C90.3727 77.7509 95.6527 72.4009 102.171 72.4009C108.689 72.4009 113.968 77.7609 113.968 84.3809C113.968 90.9909 108.683 96.3509 102.171 96.3509Z" fill="#989FB0"/>
<defs>
<filter id="filter0_d_5273_2812" x="17.1406" y="29.949" width="108.075" height="119.002" filterUnits="userSpaceOnUse" color-interpolation-filters="sRGB">
<feFlood flood-opacity="0" result="BackgroundImageFix"/>
<feColorMatrix in="SourceAlpha" type="matrix" values="0 0 0 0 0 0 0 0 0 0 0 0 0 0 0 0 0 0 127 0" result="hardAlpha"/>
<feOffset dy="11"/>
<feGaussianBlur stdDeviation="11"/>
<feColorMatrix type="matrix" values="0 0 0 0 0.397708 0 0 0 0 0.47749 0 0 0 0 0.575 0 0 0 0.27 0"/>
<feBlend mode="normal" in2="BackgroundImageFix" result="effect1_dropShadow_5273_2812"/>
<feBlend mode="normal" in="SourceGraphic" in2="effect1_dropShadow_5273_2812" result="shape"/>
</filter>
<linearGradient id="paint0_linear_5273_2812" x1="71.1576" y1="39.215" x2="71.1576" y2="116.761" gradientUnits="userSpaceOnUse">
<stop stop-color="#474E61"/>
<stop offset="0.9964" stop-color="#565E75"/>
</linearGradient>
</defs>
</svg>
