<svg width="160" height="150" viewBox="0 0 160 150" fill="none" xmlns="http://www.w3.org/2000/svg">
<path d="M77.3001 130.7C105.3 130.7 128 108 128 79.9001C128 51.8001 105.2 29.1001 77.3001 29.1001C49.3001 29.1001 26.6001 51.8001 26.6001 79.9001C26.6001 108 49.3001 130.7 77.3001 130.7Z" fill="#2E333D"/>
<path d="M128.1 52.2C130.365 52.2 132.2 50.364 132.2 48.1C132.2 45.835 130.365 44 128.1 44C125.836 44 124 45.835 124 48.1C124 50.364 125.836 52.2 128.1 52.2Z" fill="#303640"/>
<path d="M130.7 30.6C132.247 30.6 133.5 29.346 133.5 27.8C133.5 26.253 132.247 25 130.7 25C129.154 25 127.9 26.253 127.9 27.8C127.9 29.346 129.154 30.6 130.7 30.6Z" fill="#EAEEF9"/>
<path d="M29.3 46.4999C30.847 46.4999 32.1 45.2459 32.1 43.6999C32.1 42.1529 30.847 40.8999 29.3 40.8999C27.754 40.8999 26.5 42.1529 26.5 43.6999C26.5 45.2459 27.754 46.4999 29.3 46.4999Z" fill="#303640"/>
<path d="M12.2 100.5C15.072 100.5 17.4 98.1721 17.4 95.3001C17.4 92.4281 15.072 90.1001 12.2 90.1001C9.32895 90.1001 7 92.4281 7 95.3001C7 98.1721 9.32895 100.5 12.2 100.5Z" fill="#303640"/>
<g filter="url(#filter0_d_5917_26110)">
<path d="M42.2725 50.0232C43.3407 48.1537 45.3288 47 47.4819 47H110.518C112.671 47 114.659 48.1537 115.728 50.0232L119.209 56.1166C119.728 57.0231 120 58.0492 120 59.0934V99C120 102.314 117.314 105 114 105H44C40.6863 105 38 102.314 38 99V59.0934C38 58.0492 38.2725 57.0231 38.7905 56.1166L42.2725 50.0232Z" fill="#495063"/>
<rect x="38" y="52" width="82" height="60" rx="6" fill="#7E8597"/>
<rect x="63.8469" y="57.1418" width="13.4694" height="49.6684" rx="2.52551" fill="#495063"/>
<rect x="82.3674" y="57.1418" width="13.4694" height="49.6684" rx="2.52551" fill="#495063"/>
<rect x="101.729" y="57.1418" width="13.4694" height="49.6684" rx="2.52551" fill="#495063"/>
<path d="M70.5625 63.3408C69.0625 63.3408 67.75 64.6533 67.75 66.1533V75.5283C67.75 77.0283 69.0625 78.3408 70.5625 78.3408C72.0625 78.3408 73.375 77.0283 73.375 75.5283V66.1533C73.375 64.6533 72.0625 63.3408 70.5625 63.3408ZM89.3125 63.3408C87.8125 63.3408 86.5 64.6533 86.5 66.1533V75.5283C86.5 77.0283 87.8125 78.3408 89.3125 78.3408C90.8125 78.3408 92.125 77.0283 92.125 75.5283V66.1533C92.125 64.6533 90.8125 63.3408 89.3125 63.3408ZM108.062 63.3408C106.562 63.3408 105.25 64.6533 105.25 66.1533V75.5283C105.25 77.0283 106.562 78.3408 108.062 78.3408C109.562 78.3408 110.875 77.0283 110.875 75.5283V66.1533C110.875 64.6533 109.562 63.3408 108.062 63.3408Z" fill="#7E8597"/>
<path d="M47.0102 60.5094C47.0102 61.9042 45.8795 63.0349 44.4847 63.0349C43.0899 63.0349 41.9592 61.9042 41.9592 60.5094C41.9592 59.1146 43.0899 57.9839 44.4847 57.9839C45.8795 57.9839 47.0102 59.1146 47.0102 60.5094Z" fill="#495063"/>
<path d="M47.0102 68.9278C47.0102 70.3226 45.8795 71.4533 44.4847 71.4533C43.0899 71.4533 41.9592 70.3226 41.9592 68.9278C41.9592 67.533 43.0899 66.4023 44.4847 66.4023C45.8795 66.4023 47.0102 67.533 47.0102 68.9278Z" fill="#495063"/>
</g>
<path d="M117.122 29.6237L138.2 18.0965C138.986 17.6666 139.914 18.3585 139.726 19.2346L136.175 35.803C136.045 36.4088 135.421 36.77 134.831 36.5804L127.165 34.1165L133.336 24.6408L124.694 33.471L117.36 31.5554C116.443 31.3159 116.291 30.0785 117.122 29.6237Z" fill="#2E333D"/>
<path d="M80 52.8919C82.4237 52.8919 90.9069 55.4347 96.9662 54.1633C103.026 52.8919 110.193 46.2662 109.085 39.6114C106.661 25.0539 87.2785 28.9191 89.695 39.6114C92.3066 51.1671 103.165 51.7386 111.509 48.091C118.392 44.0487 124.5 36.1957 124.5 36.1957" stroke="#989FB0" stroke-width="2" stroke-miterlimit="10" stroke-dasharray="4 4"/>
<defs>
<filter id="filter0_d_5917_26110" x="15.3125" y="35.6562" width="127.375" height="110.375" filterUnits="userSpaceOnUse" color-interpolation-filters="sRGB">
<feFlood flood-opacity="0" result="BackgroundImageFix"/>
<feColorMatrix in="SourceAlpha" type="matrix" values="0 0 0 0 0 0 0 0 0 0 0 0 0 0 0 0 0 0 127 0" result="hardAlpha"/>
<feOffset dy="11.3438"/>
<feGaussianBlur stdDeviation="11.3438"/>
<feColorMatrix type="matrix" values="0 0 0 0 0.397708 0 0 0 0 0.47749 0 0 0 0 0.575 0 0 0 0.27 0"/>
<feBlend mode="normal" in2="BackgroundImageFix" result="effect1_dropShadow_5917_26110"/>
<feBlend mode="normal" in="SourceGraphic" in2="effect1_dropShadow_5917_26110" result="shape"/>
</filter>
</defs>
</svg>
